<?xml version="1.0" encoding="UTF-8"?>
<svg version="1.1" xmlns="http://www.w3.org/2000/svg" width="240" height="240">
<path d="M0 0 C3.46398945 1.93296934 6.84892696 3.97556841 10.21875 6.06640625 C15.75083586 9.48993127 21.37716906 12.75178504 26.99682617 16.02853394 C30.78288192 18.23880946 34.56202427 20.46088489 38.34216309 22.68125916 C41.4413058 24.50094773 44.54229917 26.3172744 47.6484375 28.125 C51.06424224 30.1132432 54.46986272 32.11853748 57.875 34.125 C59.40616455 35.01082764 59.40616455 35.01082764 60.96826172 35.91455078 C68.31121464 40.26689225 74.84872142 44.95426839 78.875 52.6875 C79.26429688 53.41324219 79.65359375 54.13898438 80.0546875 54.88671875 C82.16569887 59.60596318 82.15949157 64.18001841 82.17700195 69.28173828 C82.18357315 70.1148201 82.19014435 70.94790192 82.19691467 71.80622864 C82.2166095 74.56092425 82.22830351 77.31556536 82.23828125 80.0703125 C82.24235678 81.01399563 82.2464323 81.95767876 82.25063133 82.92995834 C82.27147862 87.92758717 82.28578457 92.92518868 82.29516602 97.92285156 C82.30621071 103.06735063 82.34059213 108.21141483 82.38033772 113.35576057 C82.40657265 117.32623053 82.41486408 121.29659808 82.41844749 125.26714706 C82.42329787 127.16243289 82.43486734 129.05771461 82.45348549 130.95291519 C82.57209609 143.82991607 82.32747176 154.28044123 73.02587891 164.14941406 C66.12044702 170.45734051 57.6772216 175.16667937 49.75 180.0625 C47.62845582 181.38078581 45.50737234 182.69981328 43.38671875 184.01953125 C42.32243652 184.68162598 41.2581543 185.3437207 40.16162109 186.02587891 C35.2787589 189.0747456 30.41847652 192.15854609 25.5625 195.25 C24.66023682 195.82282715 23.75797363 196.3956543 22.82836914 196.98583984 C18.57981558 199.68971114 14.3523269 202.41836388 10.1640625 205.21484375 C9.40536865 205.71790039 8.6466748 206.22095703 7.86499023 206.73925781 C6.47570593 207.66326661 5.09177711 208.59541423 3.71508789 209.53808594 C-5.29763228 215.51941346 -14.24221055 217.20192117 -25 216 C-34.91208402 213.53502121 -43.32948576 207.11031343 -51.70849609 201.51464844 C-55.55881483 198.96964765 -59.46719256 196.5179405 -63.375 194.0625 C-64.97007817 193.05733306 -66.5651301 192.05212449 -68.16015625 191.046875 C-69.35342529 190.29567383 -69.35342529 190.29567383 -70.57080078 189.52929688 C-76.22998384 185.96657098 -81.88657867 182.39983135 -87.53515625 178.8203125 C-90.36602912 177.02708189 -93.20634946 175.25120037 -96.05859375 173.4921875 C-105.82403309 167.4293143 -114.25753519 161.64660031 -117.53621197 150.11387825 C-118.28864519 146.68439732 -118.16500424 143.2138412 -118.17700195 139.71826172 C-118.18357315 138.8851799 -118.19014435 138.05209808 -118.19691467 137.19377136 C-118.2166095 134.43907575 -118.22830351 131.68443464 -118.23828125 128.9296875 C-118.24235678 127.98600437 -118.2464323 127.04232124 -118.25063133 126.07004166 C-118.27147862 121.07241283 -118.28578457 116.07481132 -118.29516602 111.07714844 C-118.30621071 105.93264937 -118.34059213 100.78858517 -118.38033772 95.64423943 C-118.40657265 91.67376947 -118.41486408 87.70340192 -118.41844749 83.73285294 C-118.42329787 81.83756711 -118.43486734 79.94228539 -118.45348549 78.04708481 C-118.57742061 64.59202604 -118.07560416 54.31878388 -108.3515625 44.09912109 C-104.13071546 40.33138409 -99.40471851 37.59540046 -94.5 34.8125 C-93.40776123 34.17521973 -92.31552246 33.53793945 -91.19018555 32.88134766 C-88.91906296 31.5583351 -86.64387316 30.24228072 -84.36474609 28.93310547 C-80.15935068 26.51703227 -75.97470908 24.06637834 -71.78955078 21.61547852 C-68.82579457 19.88277243 -65.85653348 18.15979635 -62.88671875 16.4375 C-58.89094206 14.11432766 -54.91717616 11.75839088 -50.95703125 9.375 C-49.97694092 8.78734863 -48.99685059 8.19969727 -47.98706055 7.59423828 C-46.14763249 6.4892948 -44.31155235 5.37874814 -42.47973633 4.26123047 C-28.54763756 -4.08917109 -15.26540022 -7.64319901 0 0 Z M-41.4375 60.76171875 C-41.953125 61.39722656 -42.46875 62.03273438 -43 62.6875 C-43.53625 63.31011719 -44.0725 63.93273437 -44.625 64.57421875 C-48.39588874 71.22683781 -48.33809004 78.43341611 -48.3125 85.875 C-48.32861328 86.80441406 -48.34472656 87.73382813 -48.36132812 88.69140625 C-48.36644573 96.03004894 -47.64420382 103.3415007 -43.23828125 109.4375 C-42.60277344 109.953125 -41.96726562 110.46875 -41.3125 111 C-40.68988281 111.53625 -40.06726563 112.0725 -39.42578125 112.625 C-32.66927024 116.45477758 -25.5405776 116.26021036 -18 116.125 C-16.55173828 116.11146484 -16.55173828 116.11146484 -15.07421875 116.09765625 C-12.71603674 116.07430791 -10.3579842 116.03844539 -8 116 C-8 122.6 -8 129.2 -8 136 C-14.6 135.67 -21.2 135.34 -28 135 C-28.99 133.02 -29.98 131.04 -31 129 C-33.66053508 126.33946492 -35.27055195 126.21516046 -39 126 C-42.28077846 127.32492976 -44.500036 128.500036 -47 131 C-48.83920495 136.65909217 -47.53856983 141.78274448 -45 147 C-40.61222616 152.48471731 -35.91831367 154.91560647 -29 156 C-25.36971264 156.28769235 -21.76538067 156.3250185 -18.125 156.3125 C-17.19558594 156.32861328 -16.26617187 156.34472656 -15.30859375 156.36132812 C-7.96995106 156.36644573 -0.6584993 155.64420382 5.4375 151.23828125 C5.953125 150.60277344 6.46875 149.96726562 7 149.3125 C7.53625 148.68988281 8.0725 148.06726563 8.625 147.42578125 C12.39588874 140.77316219 12.33809004 133.56658389 12.3125 126.125 C12.32861328 125.19558594 12.34472656 124.26617187 12.36132812 123.30859375 C12.36644573 115.96995106 11.64420382 108.6584993 7.23828125 102.5625 C6.60277344 102.046875 5.96726563 101.53125 5.3125 101 C4.68988281 100.46375 4.06726563 99.9275 3.42578125 99.375 C-3.33072976 95.54522242 -10.4594224 95.73978964 -18 95.875 C-19.44826172 95.88853516 -19.44826172 95.88853516 -20.92578125 95.90234375 C-23.28396326 95.92569209 -25.6420158 95.96155461 -28 96 C-28 89.4 -28 82.8 -28 76 C-21.4 76.33 -14.8 76.66 -8 77 C-7.01 78.98 -6.02 80.96 -5 83 C-2.14179574 85.39471167 -0.73884536 86.01539261 3 85.9375 C6.53365543 84.83323268 8.45275375 83.69280318 11 81 C12.78737175 76.30814915 11.73869115 72.10029425 10.203125 67.47265625 C8.13544917 63.22317963 5.09043421 60.3185714 1 58 C-5.33032325 55.94040626 -11.25034226 55.6647192 -17.875 55.6875 C-18.80441406 55.67138672 -19.73382813 55.65527344 -20.69140625 55.63867188 C-28.03004894 55.63355427 -35.3415007 56.35579618 -41.4375 60.76171875 Z " fill="#000000" transform="translate(138,14)"/>
</svg>
